:version 1.10
:name ASF
:units
  mass 1
  length 1
  angle deg
:documentation
  ASF file generated by Kaydara
:root
  axis xyz
  order  tx ty tz rx ry rz
  position 0 0 0
  orientation 0 0 0
:bonedata
  begin
    id 1
    name RightUpLegDummy
    direction -1 2.30186e-007 8.31532e-007
    length 4.46685
    axis 0 0 0 xyz
  end
  begin
    id 2
    name RightUpLeg
    direction -2.30187e-007 -1 1.24343e-010
    length 16.4045
    axis -3.49089 -0.000906625 0.000286804 xyz
    dof rx ry rz
  end
  begin
    id 3
    name RightLeg
    direction -2.30181e-007 -1 -4.17157e-009
    length 17.5097
    axis 3.68512 0.0193738 -0.131023 xyz
    dof rx ry rz
  end
  begin
    id 4
    name RightFoot
    direction 8.31421e-007 -4.51202e-011 1
    length 6.49508
    axis 4.81691e-005 -0.120479 -0.188788 xyz
    dof rx ry rz
  end
  begin
    id 5
    name RightToes
    direction 0.00124746 -0.014064 0.9999
    length 3.85082
    axis 0.000481921 0.542163 -0.142578 xyz
    dof rx ry rz
  end
  begin
    id 6
    name SpineDummy
    direction 0.0717043 0.9409 -0.331007
    length 10.0032
    axis 0 0 0 xyz
  end
  begin
    id 7
    name Spine
    direction 2.30186e-007 1 4.58806e-011
    length 9.84055
    axis -0.001389 0.000121418 2.40972e-006 xyz
    dof rx ry rz
  end
  begin
    id 8
    name Spine1
    direction 0 0 0
    length 0
    axis -0.001389 0.000121451 1.30017e-006 xyz
    dof rx ry rz
  end
  begin
    id 9
    name HEadDummy
    direction -0.00347485 0.950688 -0.310128
    length 8.00997
    axis -0.001389 0.000121451 1.30017e-006 xyz
  end
  begin
    id 10
    name HEad
    direction -0.0222688 0.980941 0.193023
    length 5.12695
    axis -0.001389 0.000121451 1.30017e-006 xyz
    dof rx ry rz
  end
  begin
    id 11
    name LeftShoulder1Dummy
    direction 0.988871 0.146793 -0.0242004
    length 3.5792
    axis -0.001389 0.000121451 1.30017e-006 xyz
  end
  begin
    id 12
    name LeftShoulder1
    direction 0.993832 0.108932 0.020779
    length 4.16823
    axis -0.001389 0.000121451 1.30017e-006 xyz
    dof rx ry rz
  end
  begin
    id 13
    name LeftArm
    direction 1 3.44807e-006 -8.31404e-007
    length 9.91437
    axis -23.1894 0.134784 0.967509 xyz
    dof rx ry rz
  end
  begin
    id 14
    name LeftForeArm
    direction 1 3.44842e-006 -8.31581e-007
    length 9.08575
    axis -9.91835 -0.06569 -0.177793 xyz
    dof rx ry rz
  end
  begin
    id 15
    name LeftHand
    direction 0.992938 -0.0411636 0.11126
    length 5.32135
    axis -0.00960232 -0.00340091 0.185173 xyz
    dof rx ry rz
  end
  begin
    id 16
    name RightShoulderDummy
    direction -0.988871 0.146793 -0.0241962
    length 3.5792
    axis -0.001389 0.000121451 1.30017e-006 xyz
  end
  begin
    id 17
    name RightShoulder
    direction -0.993832 0.108933 0.0207785
    length 4.16823
    axis 0.215806 0.000203643 -0.0068026 xyz
    dof rx ry rz
  end
  begin
    id 18
    name RightArm
    direction -1 3.90912e-006 8.31284e-007
    length 9.91437
    axis -23.2009 -0.134239 -0.964101 xyz
    dof rx ry rz
  end
  begin
    id 19
    name RightForeArm
    direction -1 3.90882e-006 8.31502e-007
    length 9.08575
    axis -9.92322 0.0658061 0.178867 xyz
    dof rx ry rz
  end
  begin
    id 20
    name RightHand
    direction -0.992843 -0.0414603 0.112003
    length 5.28593
    axis -0.00960638 0.00330671 -0.185228 xyz
    dof rx ry rz
  end
  begin
    id 21
    name LeftUpLegDummy
    direction 1 -2.30186e-007 -8.31532e-007
    length 4.46685
    axis 0 0 0 xyz
  end
  begin
    id 22
    name LeftUpLeg
    direction -2.30187e-007 -1 6.00931e-010
    length 16.4045
    axis -3.48766 0.00143442 -0.000524262 xyz
    dof rx ry rz
  end
  begin
    id 23
    name LeftLeg
    direction -2.30187e-007 -1 1.6669e-009
    length 17.5097
    axis 3.68178 -0.00654042 -0.000285133 xyz
    dof rx ry rz
  end
  begin
    id 24
    name LeftFoot
    direction 8.31532e-007 -4.54478e-011 1
    length 6.49508
    axis 1.87233e-006 4.66016e-005 -8.6538e-006 xyz
    dof rx ry rz
  end
  begin
    id 25
    name LeftToes
    direction 0.00818058 -0.00485161 0.999955
    length 3.85048
    axis 1.06247e-005 4.65869e-005 -8.65513e-006 xyz
    dof rx ry rz
  end
:hierarchy
  begin
    root RightUpLegDummy SpineDummy LeftUpLegDummy
    RightUpLegDummy RightUpLeg
    RightUpLeg RightLeg
    RightLeg RightFoot
    RightFoot RightToes
    SpineDummy Spine
    Spine Spine1
    Spine1 HEadDummy LeftShoulder1Dummy RightShoulderDummy
    HEadDummy HEad
    LeftShoulder1Dummy LeftShoulder1
    LeftShoulder1 LeftArm
    LeftArm LeftForeArm
    LeftForeArm LeftHand
    RightShoulderDummy RightShoulder
    RightShoulder RightArm
    RightArm RightForeArm
    RightForeArm RightHand
    LeftUpLegDummy LeftUpLeg
    LeftUpLeg LeftLeg
    LeftLeg LeftFoot
    LeftFoot LeftToes
  end

:SAMPLES-PER-SECOND 30
:FULLY-SPECIFIED
:DEGREES
176
root  21.8169 32.7964 5.12866 11.7501 -64.2334 -8.60165
RightUpLeg  -16.0643 -7.28011 9.75679
RightLeg  26.2153 -6.16134 -2.55356
RightFoot  -6.52927 0.0131866 0.608793
RightToes  -15.8087 -0.0607307 -0.143201
Spine  6.53182 -1.82245 1.70889
Spine1  12.6278 -3.96604 2.8269
HEad  7.23168 -22.9827 18.8297
LeftShoulder1  0 -2.42657e-020 -4.95415e-022
LeftArm  -39.0867 4.75824 -75.0467
LeftForeArm  51.8351 -18.6581 -3.37896
LeftHand  0.239642 -7.44372 -4.05642
RightShoulder  0 2.42657e-020 1.07489e-018
RightArm  -61.974 -9.64625 73.8934
RightForeArm  59.123 10.9678 1.9151
RightHand  -0.824027 22.7235 -3.73018
LeftUpLeg  -14.9859 10.2754 10.943
LeftLeg  60.2131 7.0619 10.5243
LeftFoot  -7.79072 -0.133149 -1.95526
LeftToes  5.57833 1.28829e-006 1.15665e-007
177
root  22.7568 32.6384 4.78594 12.4857 -60.8384 -8.2243
RightUpLeg  -20.1816 -9.71005 10.3437
RightLeg  28.5959 -6.68063 -3.09859
RightFoot  -6.68876 0.0199127 0.718379
RightToes  -15.523 -0.0591818 -0.139887
Spine  6.25073 -3.01405 1.52813
Spine1  11.9559 -6.62478 2.87023
HEad  6.18006 -22.9211 19.8211
LeftShoulder1  0 -2.42657e-020 -4.95415e-022
LeftArm  -35.9914 2.03715 -74.56
LeftForeArm  50.9012 -19.4956 -3.54594
LeftHand  0.256589 -7.65987 -4.20518
RightShoulder  0 2.42657e-020 1.07489e-018
RightArm  -65.6423 -11.5159 74.5582
RightForeArm  60.6122 9.99464 1.7351
RightHand  -0.928517 22.3263 -4.33389
LeftUpLeg  -10.9088 6.92418 12.9064
LeftLeg  55.4741 8.02443 10.0478
LeftFoot  -7.79109 -0.136901 -2.01025
LeftToes  5.67112 1.28829e-006 1.15665e-007
178
root  23.7279 32.4412 4.45118 13.051 -57.0153 -7.62456
RightUpLeg  -24.6557 -13.1483 10.9527
RightLeg  31.3621 -6.70674 -3.51399
RightFoot  -7.15657 0.0268702 0.807315
RightToes  -15.0852 -0.0578988 -0.138748
Spine  6.07907 -4.22709 1.32285
Spine1  11.5091 -9.2851 2.81756
HEad  4.99197 -23.0255 21.431
LeftShoulder1  0 -2.42657e-020 -4.95415e-022
LeftArm  -31.7759 -0.569672 -74.2185
LeftForeArm  49.5116 -21.0031 -3.85049
LeftHand  0.266129 -7.81524 -4.26831
RightShoulder  0 2.42657e-020 1.07489e-018
RightArm  -69.4429 -13.1852 75.5669
RightForeArm  61.4275 9.30881 1.6094
RightHand  -0.991562 21.9358 -4.74451
LeftUpLeg  -7.24743 4.26181 14.8012
LeftLeg  48.8386 8.33267 8.28354
LeftFoot  -8.4926 -0.148961 -2.00607
LeftToes  6.59445 1.28829e-006 1.15665e-007
179
root  24.799 32.1833 4.06239 14.4435 -52.8009 -7.18732
RightUpLeg  -30.2547 -16.4987 12.0155
RightLeg  34.4153 -6.97999 -4.14405
RightFoot  -7.41167 0.0339745 0.902176
RightToes  -15.4324 -0.0574862 -0.139121
Spine  5.7365 -5.39419 1.30528
Spine1  10.7625 -11.7815 3.00382
HEad  3.40225 -23.4129 23.2744
LeftShoulder1  0 -2.42657e-020 -4.95415e-022
LeftArm  -26.6973 -2.83656 -74.2997
LeftForeArm  47.2939 -23.2358 -4.31368
LeftHand  0.312757 -7.74663 -4.9913
RightShoulder  0 2.42657e-020 1.07489e-018
RightArm  -72.8765 -14.6661 76.518
RightForeArm  61.8238 8.7509 1.50812
RightHand  -1.01233 21.5768 -4.94044
LeftUpLeg  -5.04639 3.26815 16.9603
LeftLeg  40.8731 6.15225 4.6437
LeftFoot  -6.31303 -0.0612769 -1.11112
LeftToes  1.46219 1.28829e-006 1.15665e-007
180
root  25.9008 31.8151 3.60843 16.0912 -48.8829 -7.10149
RightUpLeg  -36.3085 -19.7289 13.5194
RightLeg  38.0064 -6.83473 -4.6619
RightFoot  -7.83157 0.039734 0.958112
RightToes  -15.7485 -0.059048 -0.141791
Spine  5.56208 -6.37081 1.39787
Spine1  10.3131 -13.9034 3.39103
HEad  1.16698 -23.8311 25.3102
LeftShoulder1  0 -2.42657e-020 -4.95415e-022
LeftArm  -22.0143 -5.218 -74.7912
LeftForeArm  45.5818 -25.4884 -4.79653
LeftHand  0.383701 -8.57418 -5.48947
RightShoulder  0 2.42657e-020 1.07489e-018
RightArm  -75.3473 -15.5413 77.4231
RightForeArm  60.8995 8.72918 1.5063
RightHand  -0.867866 21.3422 -4.23464
LeftUpLeg  -3.4976 3.90545 19.3599
LeftLeg  32.5464 2.86884 1.57622
LeftFoot  -1.34271 -0.00444971 -0.379744
LeftToes  -43.2792 1.28829e-006 1.15665e-007
